HIERARCHY
ROOT Hips
{
	OFFSET 0.000000 83.214638 0.000000
	CHANNELS 6 Xposition Yposition Zposition Xrotation Yrotation Zrotation
	JOINT Pelvis
	{
		OFFSET 0.000000 0.000000 0.000000
		CHANNELS 3 Xrotation Yrotation Zrotation
		JOINT LeftUpLeg
		{
			OFFSET 8.479700 -4.795502 -0.379100
			CHANNELS 3 Xrotation Yrotation Zrotation
			JOINT LeftLeg
			{
				OFFSET 0.024144 -32.555107 0.112900
				CHANNELS 3 Xrotation Yrotation Zrotation
				JOINT LeftFoot
				{
					OFFSET -0.024144 -32.638630 -3.012600
					CHANNELS 3 Xrotation Yrotation Zrotation
					JOINT LeftToeBase
					{
						OFFSET 0.970200 -13.225400 11.864200
						CHANNELS 3 Xrotation Yrotation Zrotation
						End Site
						{
							OFFSET 0.000000 12.319262 0.000000
						}
					}
					JOINT LFootTongue
					{
						OFFSET 1.142400 -1.059800 6.665200
						CHANNELS 3 Xrotation Yrotation Zrotation
						End Site
						{
							OFFSET 0.000000 12.319262 0.000000
						}
					}
				}
				JOINT LeftPantLeg
				{
					OFFSET 0.918482 -16.533964 -2.284700
					CHANNELS 3 Xrotation Yrotation Zrotation
					End Site
					{
						OFFSET 0.350399 24.744368 0.000000
					}
				}
			}
		}
		JOINT RightUpLeg
		{
			OFFSET -8.479700 -4.795502 -0.379100
			CHANNELS 3 Xrotation Yrotation Zrotation
			JOINT RightLeg
			{
				OFFSET -0.023144 -32.555092 0.112900
				CHANNELS 3 Xrotation Yrotation Zrotation
				JOINT RightFoot
				{
					OFFSET 0.023144 -32.638641 -3.012700
					CHANNELS 3 Xrotation Yrotation Zrotation
					JOINT RightToeBase
					{
						OFFSET -0.970200 -13.225400 11.864200
						CHANNELS 3 Xrotation Yrotation Zrotation
						End Site
						{
							OFFSET 0.000000 12.319244 0.000000
						}
					}
					JOINT RFootTongue
					{
						OFFSET -1.142200 -1.059800 6.665200
						CHANNELS 3 Xrotation Yrotation Zrotation
						End Site
						{
							OFFSET 0.000000 12.319243 0.000000
						}
					}
				}
				JOINT RightPantLeg
				{
					OFFSET -0.919482 -16.533978 -2.284800
					CHANNELS 3 Xrotation Yrotation Zrotation
					End Site
					{
						OFFSET -0.350400 24.744419 0.000000
					}
				}
			}
		}
	}
	JOINT Spine
	{
		OFFSET 0.000000 7.722000 1.166200
		CHANNELS 3 Xrotation Yrotation Zrotation
		JOINT Spine1
		{
			OFFSET 0.000000 12.024101 0.248800
			CHANNELS 3 Xrotation Yrotation Zrotation
			JOINT Spine2
			{
				OFFSET 0.000000 11.502998 -0.491200
				CHANNELS 3 Xrotation Yrotation Zrotation
				JOINT Neck
				{
					OFFSET 0.000000 18.430702 -3.123100
					CHANNELS 3 Xrotation Yrotation Zrotation
					JOINT Head
					{
						OFFSET 0.000000 9.051102 1.034000
						CHANNELS 3 Xrotation Yrotation Zrotation
						JOINT HairB
						{
							OFFSET 0.208400 24.786102 24.822300
							CHANNELS 3 Xrotation Yrotation Zrotation
							End Site
							{
								OFFSET 0.000000 32.263779 0.000000
							}
						}
						JOINT HairA
						{
							OFFSET -7.081100 24.428299 23.196600
							CHANNELS 3 Xrotation Yrotation Zrotation
							End Site
							{
								OFFSET 0.000000 32.263779 0.000000
							}
						}
						JOINT Hat
						{
							OFFSET 16.728800 15.048294 -15.439601
							CHANNELS 3 Xrotation Yrotation Zrotation
							End Site
							{
								OFFSET 0.000000 32.263779 0.000000
							}
						}
					}
				}
				JOINT LeftShoulder
				{
					OFFSET 6.197800 13.665199 -4.064700
					CHANNELS 3 Xrotation Yrotation Zrotation
					JOINT LeftArm
					{
						OFFSET 7.778100 -0.187103 -1.709300
						CHANNELS 3 Xrotation Yrotation Zrotation
						JOINT LeftForeArm
						{
							OFFSET 22.049376 0.000000 0.000000
							CHANNELS 3 Xrotation Yrotation Zrotation
							JOINT LeftHand
							{
								OFFSET 23.009392 0.000000 0.000000
								CHANNELS 3 Xrotation Yrotation Zrotation
								JOINT LeftHandThumb1
								{
									OFFSET 3.507191 -2.063065 3.133727
									CHANNELS 3 Xrotation Yrotation Zrotation
									JOINT LeftHandThumb2
									{
										OFFSET 3.101337 -1.790558 1.790558
										CHANNELS 3 Xrotation Yrotation Zrotation
										JOINT LeftHandThumb3
										{
											OFFSET 3.058640 -1.765907 1.765906
											CHANNELS 3 Xrotation Yrotation Zrotation
											End Site
											{
												OFFSET -0.415260 3.926476 -0.049563
											}
										}
									}
								}
								JOINT LeftHandIndex1
								{
									OFFSET 11.334419 -0.901459 3.706815
									CHANNELS 3 Xrotation Yrotation Zrotation
									JOINT LeftHandIndex2
									{
										OFFSET 3.283112 0.000000 0.000000
										CHANNELS 3 Xrotation Yrotation Zrotation
										JOINT LeftHandIndex3
										{
											OFFSET 3.323853 0.000000 0.000000
											CHANNELS 3 Xrotation Yrotation Zrotation
											End Site
											{
												OFFSET -1.135597 3.097809 0.402452
											}
										}
									}
								}
								JOINT LeftHandMiddle1
								{
									OFFSET 11.335861 0.000000 0.000000
									CHANNELS 3 Xrotation Yrotation Zrotation
									JOINT LeftHandMiddle2
									{
										OFFSET 3.410492 0.000000 0.000000
										CHANNELS 3 Xrotation Yrotation Zrotation
										JOINT LeftHandMiddle3
										{
											OFFSET 3.312172 0.000000 0.000000
											CHANNELS 3 Xrotation Yrotation Zrotation
											End Site
											{
												OFFSET -1.150200 3.080154 0.400270
											}
										}
									}
								}
								JOINT LeftHandRing1
								{
									OFFSET 11.514786 -0.013176 -3.003090
									CHANNELS 3 Xrotation Yrotation Zrotation
									JOINT LeftHandRing2
									{
										OFFSET 3.053307 0.000000 0.000000
										CHANNELS 3 Xrotation Yrotation Zrotation
										JOINT LeftHandRing3
										{
											OFFSET 3.295807 0.000000 0.000000
											CHANNELS 3 Xrotation Yrotation Zrotation
											End Site
											{
												OFFSET -1.281006 3.013344 0.375733
											}
										}
									}
								}
								JOINT LeftHandPinky1
								{
									OFFSET 10.518692 -0.960396 -5.730441
									CHANNELS 3 Xrotation Yrotation Zrotation
									JOINT LeftHandPinky2
									{
										OFFSET 2.861649 0.000000 0.000000
										CHANNELS 3 Xrotation Yrotation Zrotation
										JOINT LeftHandPinky3
										{
											OFFSET 2.863380 0.000000 0.000000
											CHANNELS 3 Xrotation Yrotation Zrotation
											End Site
											{
												OFFSET -0.843597 2.711159 0.369971
											}
										}
									}
								}
							}
							JOINT LSleeve
							{
								OFFSET 6.676277 -0.344902 -1.011730
								CHANNELS 3 Xrotation Yrotation Zrotation
								End Site
								{
									OFFSET 0.000000 14.885353 0.000000
								}
							}
						}
					}
				}
				JOINT RightShoulder
				{
					OFFSET -6.197800 13.665199 -4.064700
					CHANNELS 3 Xrotation Yrotation Zrotation
					JOINT RightArm
					{
						OFFSET -7.778100 -0.187103 -1.709300
						CHANNELS 3 Xrotation Yrotation Zrotation
						JOINT RightForeArm
						{
							OFFSET -22.049376 0.000000 0.000000
							CHANNELS 3 Xrotation Yrotation Zrotation
							JOINT RightHand
							{
								OFFSET -23.009392 0.000000 0.000000
								CHANNELS 3 Xrotation Yrotation Zrotation
								JOINT RightHandThumb1
								{
									OFFSET -3.507191 -2.063065 3.133727
									CHANNELS 3 Xrotation Yrotation Zrotation
									JOINT RightHandThumb2
									{
										OFFSET -3.101337 -1.790558 1.790558
										CHANNELS 3 Xrotation Yrotation Zrotation
										JOINT RightHandThumb3
										{
											OFFSET -3.058640 -1.765907 1.765906
											CHANNELS 3 Xrotation Yrotation Zrotation
											End Site
											{
												OFFSET 0.415260 3.926476 -0.049563
											}
										}
									}
								}
								JOINT RightHandIndex1
								{
									OFFSET -11.334419 -0.901459 3.706815
									CHANNELS 3 Xrotation Yrotation Zrotation
									JOINT RightHandIndex2
									{
										OFFSET -3.283112 0.000000 0.000000
										CHANNELS 3 Xrotation Yrotation Zrotation
										JOINT RightHandIndex3
										{
											OFFSET -3.323853 0.000000 0.000000
											CHANNELS 3 Xrotation Yrotation Zrotation
											End Site
											{
												OFFSET 1.135597 3.097809 0.402452
											}
										}
									}
								}
								JOINT RightHandMiddle1
								{
									OFFSET -11.335861 0.000000 0.000000
									CHANNELS 3 Xrotation Yrotation Zrotation
									JOINT RightHandMiddle2
									{
										OFFSET -3.410492 0.000000 0.000000
										CHANNELS 3 Xrotation Yrotation Zrotation
										JOINT RightHandMiddle3
										{
											OFFSET -3.312172 0.000000 0.000000
											CHANNELS 3 Xrotation Yrotation Zrotation
											End Site
											{
												OFFSET 1.150200 3.080154 0.400270
											}
										}
									}
								}
								JOINT RightHandRing1
								{
									OFFSET -11.514786 -0.013176 -3.003090
									CHANNELS 3 Xrotation Yrotation Zrotation
									JOINT RightHandRing2
									{
										OFFSET -3.053307 0.000000 0.000000
										CHANNELS 3 Xrotation Yrotation Zrotation
										JOINT RightHandRing3
										{
											OFFSET -3.295807 0.000000 0.000000
											CHANNELS 3 Xrotation Yrotation Zrotation
											End Site
											{
												OFFSET 1.281006 3.013344 0.375733
											}
										}
									}
								}
								JOINT RightHandPinky1
								{
									OFFSET -10.518692 -0.960396 -5.730441
									CHANNELS 3 Xrotation Yrotation Zrotation
									JOINT RightHandPinky2
									{
										OFFSET -2.861649 0.000000 0.000000
										CHANNELS 3 Xrotation Yrotation Zrotation
										JOINT RightHandPinky3
										{
											OFFSET -2.863380 0.000000 0.000000
											CHANNELS 3 Xrotation Yrotation Zrotation
											End Site
											{
												OFFSET 0.843597 2.711159 0.369971
											}
										}
									}
								}
							}
							JOINT RSleeve
							{
								OFFSET -6.676277 -0.344902 -1.011730
								CHANNELS 3 Xrotation Yrotation Zrotation
								End Site
								{
									OFFSET 0.000000 14.885353 0.000000
								}
							}
						}
					}
				}
				JOINT Backpack
				{
					OFFSET 0.000000 -2.471497 36.677502
					CHANNELS 3 Xrotation Yrotation Zrotation
					End Site
					{
						OFFSET 0.000000 20.427315 0.000000
					}
				}
				JOINT Hood
				{
					OFFSET 0.000000 18.754097 -10.431000
					CHANNELS 3 Xrotation Yrotation Zrotation
					JOINT Hood1
					{
						OFFSET 0.000000 -5.011002 -7.685901
						CHANNELS 3 Xrotation Yrotation Zrotation
						End Site
						{
							OFFSET 0.000000 9.175140 0.000000
						}
					}
				}
				JOINT LHoodieString
				{
					OFFSET 5.250500 16.397697 3.089900
					CHANNELS 3 Xrotation Yrotation Zrotation
					JOINT LHoodieString1
					{
						OFFSET 0.257700 -6.364304 3.694600
						CHANNELS 3 Xrotation Yrotation Zrotation
						JOINT LHoodieString2
						{
							OFFSET 0.000000 -9.643799 2.679100
							CHANNELS 3 Xrotation Yrotation Zrotation
							End Site
							{
								OFFSET 0.000000 10.009018 0.000000
							}
						}
					}
				}
				JOINT RHoodieString
				{
					OFFSET -5.250500 16.397697 3.089900
					CHANNELS 3 Xrotation Yrotation Zrotation
					JOINT RHoodieString1
					{
						OFFSET -0.257700 -6.364304 3.694600
						CHANNELS 3 Xrotation Yrotation Zrotation
						JOINT RHoodieString2
						{
							OFFSET 0.000000 -9.643799 2.679100
							CHANNELS 3 Xrotation Yrotation Zrotation
							End Site
							{
								OFFSET 0.000000 10.009018 0.000000
							}
						}
					}
				}
			}
			JOINT LBackpack_Strap
			{
				OFFSET 15.223200 -7.719803 -6.610900
				CHANNELS 3 Xrotation Yrotation Zrotation
				End Site
				{
					OFFSET 0.000000 16.040596 0.000000
				}
			}
			JOINT RBackpack_Strap
			{
				OFFSET -15.223000 -7.719803 -6.610900
				CHANNELS 3 Xrotation Yrotation Zrotation
				End Site
				{
					OFFSET 0.000000 16.040596 0.000000
				}
			}
		}
	}
	JOINT BoyFacialAnim_Joint
	{
		OFFSET 1.000000 -82.208099 -1.550900
		CHANNELS 3 Xrotation Yrotation Zrotation
		End Site
		{
			OFFSET 0.000000 30.012791 0.000000
		}
	}
}
MOTION
Frames: 4
Frame Time: 0.033333
2.185370 77.527710 52.753105 5.680882 -6.797309 -0.670215 0.000000 0.000000 -0.000000 -0.479027 6.670019 1.599056 40.144242 6.432010 -1.077238 1.192458 0.230277 -9.708708 0.000000 -0.000000 0.000000 0.000000 -0.000000 0.000001 0.000004 -0.000000 0.000000 -39.916599 4.388962 0.599660 26.440916 0.093394 0.986069 6.165989 -12.121366 1.984249 -0.000000 -0.000000 -0.000000 -0.000000 -0.000000 -0.000000 -0.000000 -0.000000 0.000000 0.482690 -2.790087 1.504621 1.034070 -5.555552 2.951702 1.034070 -5.555554 2.951703 4.081587 11.519337 6.238614 -10.812790 3.341106 -10.887278 0.000000 0.000001 -0.000000 0.000000 0.000001 -0.000000 0.000000 0.000001 -0.000000 -6.358075 -6.851252 -13.796577 -8.449126 -20.527611 -59.393303 -10.460880 -44.254329 -15.471360 -115.190034 -15.626223 4.275505 0.306651 -4.772998 -2.247113 1.247556 4.304326 1.894329 -0.000001 -0.000001 -0.000002 8.341670 5.212151 -33.241141 -15.176091 -6.857610 -80.983873 -0.000001 -0.000001 -0.000000 2.468963 -1.460561 -65.166780 -6.700818 -7.656434 -60.141400 0.000001 -0.000000 -0.000001 -3.824876 4.918545 -74.866400 0.754789 -3.527303 -58.343927 -0.000001 -0.000001 0.000003 -14.908696 2.674713 -88.693667 3.068224 -7.511189 -53.669144 0.000001 -0.000000 -0.000000 -0.000002 0.000002 0.000001 6.166994 -4.079736 11.375370 35.603351 49.272059 20.865892 -29.360620 104.930461 21.828450 -48.444848 -21.219584 -10.636629 14.689003 -4.161717 17.093040 11.560844 3.607409 -20.510498 0.000002 0.000000 0.000001 2.524332 -0.224134 5.408994 -1.787355 -0.119060 22.599091 0.000002 0.000001 0.000004 3.398205 7.072280 50.057408 -9.077804 -1.102576 111.092569 0.000003 -0.000001 0.000003 -9.807601 -4.571951 55.979377 -4.512522 8.959151 96.511816 0.000001 0.000002 0.000002 -15.700392 0.683741 69.482681 -3.320688 14.089330 79.959256 0.000004 0.000004 -0.000001 -0.000002 -0.000001 -0.000003 0.000000 -0.000000 -0.000000 0.000000 -0.000000 -0.000000 0.000000 -0.000000 -0.000000 0.000000 -0.000000 -0.000000 0.000000 -0.000000 0.000000 0.000000 -0.000000 -0.000000 0.000000 -0.000000 -0.000000 0.000000 -0.000000 0.000000 0.000000 -0.000000 -0.000000 -0.000000 -0.000000 -0.000000 -0.000000 -0.000000 -0.000000 0.000000 0.000000 -0.000000 
1.407010 77.397728 55.287796 5.102472 -6.255688 -1.416966 0.000000 0.000000 0.000000 -4.728847 5.268603 3.012162 47.357468 5.733242 -1.349158 11.351222 0.916635 -10.349277 -0.000000 0.000000 0.000000 -0.000000 0.000000 0.000001 -0.000001 0.000000 -0.000000 -39.308668 3.963208 1.470089 30.240953 0.013753 1.109891 4.145004 -12.196067 1.905891 0.000000 -0.000000 0.000000 0.000000 -0.000000 0.000000 0.000000 0.000000 0.000000 0.681015 -2.696390 1.862863 1.412277 -5.267481 3.218557 1.412276 -5.267478 3.218556 4.173573 11.096009 6.531037 -10.950648 2.818825 -10.069441 -0.000000 0.000000 0.000000 -0.000000 0.000000 0.000000 -0.000000 0.000000 0.000000 -6.397412 -6.436009 -13.599746 -8.663117 -21.297163 -59.674256 -10.105094 -43.080793 -15.076678 -115.471096 -15.387475 3.221273 0.509351 -4.696982 -2.484455 1.249066 4.303805 1.893150 0.000000 0.000000 0.000002 8.135238 5.306320 -33.217020 -15.100925 -6.868036 -80.906514 -0.000002 0.000000 -0.000004 2.447933 -1.170348 -64.733166 -6.759127 -7.405032 -60.246906 -0.000000 -0.000001 0.000004 -3.864030 5.079437 -74.527971 0.755642 -3.525700 -58.327582 0.000002 -0.000001 0.000001 -14.845420 2.749075 -88.059061 3.022233 -7.605142 -54.219817 0.000001 -0.000001 0.000001 0.000001 0.000002 0.000001 5.987331 -4.002164 11.856098 36.777222 48.994149 20.061022 -30.456158 104.655451 22.867813 -48.135738 -20.386964 -10.444520 14.792836 -4.267241 17.014590 11.527303 3.705953 -20.474827 0.000000 0.000002 -0.000003 2.554402 -0.404899 5.259577 -1.786975 -0.113835 22.523614 -0.000000 0.000001 0.000004 3.479497 6.786041 50.047159 -9.156213 -1.103897 111.004391 -0.000001 -0.000005 -0.000001 -9.782605 -4.913312 56.050633 -4.567465 8.959514 96.591907 0.000000 0.000002 0.000004 -15.709029 0.293959 69.769597 -3.359332 14.071075 79.907360 -0.000001 0.000001 -0.000001 -0.000001 -0.000000 0.000001 0.000000 -0.000001 0.000000 0.000000 -0.000001 0.000000 0.000000 -0.000001 0.000000 0.000000 -0.000001 0.000000 0.000000 -0.000001 -0.000000 0.000000 -0.000001 0.000000 0.000000 -0.000001 0.000000 0.000000 -0.000001 -0.000000 0.000000 -0.000001 0.000000 0.000000 -0.000000 0.000000 0.000000 -0.000000 0.000000 0.000000 0.000000 0.000000 
0.835316 77.038673 57.417255 4.534825 -5.431995 -1.954921 -0.000001 -0.000000 0.000000 -10.625025 4.034779 4.364236 55.593932 4.790475 -1.655146 22.264286 0.603209 -11.215445 -0.000002 0.000000 -0.000001 -0.000002 0.000000 -0.000000 -0.000002 -0.000001 0.000000 -39.193965 3.812665 2.090684 35.117383 -0.082027 1.261325 -0.351210 -12.695028 1.597092 0.000000 -0.000000 -0.000000 0.000000 -0.000000 -0.000000 0.000000 -0.000000 0.000000 0.923174 -2.557366 2.280409 1.859830 -4.869594 3.279437 1.859830 -4.869599 3.279440 4.281619 10.454767 6.692048 -10.979860 2.075097 -9.004679 0.000000 0.000000 -0.000000 0.000000 0.000000 -0.000000 0.000000 0.000000 -0.000000 -6.417589 -6.009406 -13.661712 -9.440646 -22.582663 -60.025451 -9.968305 -41.894324 -14.695248 -115.416933 -15.339632 2.215622 0.715920 -4.606127 -2.727114 1.250589 4.303268 1.891969 0.000002 0.000001 0.000002 7.927957 5.400748 -33.193230 -15.025520 -6.878024 -80.828711 -0.000002 0.000000 -0.000002 2.417079 -0.881300 -64.296566 -6.815094 -7.152231 -60.352303 -0.000000 -0.000000 -0.000001 -3.908038 5.238811 -74.187828 0.756503 -3.524116 -58.311224 -0.000001 0.000000 0.000001 -14.789084 2.820663 -87.421504 2.974865 -7.698716 -54.772790 -0.000000 0.000001 -0.000000 -0.000002 0.000001 0.000003 5.831377 -4.249433 12.271104 37.064001 48.450053 19.933308 -31.540625 104.406415 23.898849 -47.253725 -19.470322 -9.549869 14.898191 -4.373113 16.936728 11.493841 3.804947 -20.439070 0.000001 -0.000001 0.000002 2.582013 -0.586738 5.109791 -1.786572 -0.108577 22.447838 -0.000001 0.000003 -0.000001 3.561233 6.498522 50.034592 -9.234995 -1.104615 110.915941 0.000002 -0.000004 0.000003 -9.753486 -5.254942 56.118812 -4.622563 8.959548 96.672264 0.000003 0.000000 0.000000 -15.706643 -0.094850 70.055836 -3.398183 14.052955 79.855266 -0.000000 0.000004 -0.000003 0.000001 -0.000001 -0.000001 -0.000000 -0.000001 -0.000000 -0.000000 -0.000001 -0.000000 -0.000000 -0.000001 -0.000000 -0.000000 -0.000001 -0.000000 -0.000000 -0.000001 -0.000000 -0.000001 -0.000001 -0.000000 -0.000000 -0.000001 -0.000000 -0.000000 -0.000001 -0.000000 -0.000001 -0.000001 -0.000000 0.000001 -0.000001 0.000000 0.000001 -0.000001 0.000000 -0.000001 -0.000000 0.000000 
0.453871 76.843689 59.534340 3.952423 -4.601733 -2.244842 -0.000000 0.000000 -0.000000 -16.705840 3.323486 5.156852 63.563769 3.971548 -1.933145 27.395506 -0.498287 -10.602954 -0.000000 -0.000001 0.000001 -0.000000 -0.000001 0.000001 0.000003 0.000000 0.000000 -38.234333 3.872730 2.387704 38.481228 -0.114935 1.363736 -4.133314 -13.569401 1.444381 -0.000000 -0.000000 -0.000000 -0.000000 -0.000000 -0.000000 0.000001 -0.000000 -0.000000 1.149966 -2.330886 2.595862 2.282272 -4.354065 3.209444 2.282274 -4.354068 3.209447 4.409725 9.662343 6.676569 -10.928955 1.171624 -8.053556 -0.000000 -0.000000 -0.000000 -0.000000 -0.000000 -0.000000 -0.000000 -0.000000 -0.000000 -6.402343 -5.659403 -14.142390 -10.268404 -23.832958 -60.059308 -10.125743 -41.227736 -14.508999 -115.034401 -15.572159 1.604088 0.925690 -4.500407 -2.974428 1.252110 4.302740 1.890793 -0.000000 -0.000001 -0.000002 7.720581 5.495120 -33.169885 -14.950191 -6.887628 -80.750793 -0.000001 -0.000001 0.000002 2.376499 -0.594693 -63.858423 -6.868483 -6.899035 -60.457215 0.000001 -0.000001 0.000000 -3.956761 5.395995 -73.847145 0.757350 -3.522495 -58.294818 0.000001 -0.000001 -0.000000 -14.739804 2.889039 -86.783393 2.926282 -7.791536 -55.325994 -0.000001 0.000000 -0.000000 -0.000001 0.000001 -0.000002 5.674312 -4.603911 12.607032 36.964468 47.814729 19.834912 -32.578298 104.168444 24.882649 -46.427586 -18.506657 -8.375040 15.004659 -4.478985 16.859729 11.460649 3.904048 -20.403384 0.000001 -0.000002 0.000001 2.607074 -0.768929 4.960119 -1.786169 -0.103324 22.372059 -0.000002 0.000001 0.000004 3.643144 6.210799 50.019750 -9.313839 -1.104683 110.827421 -0.000000 0.000003 0.000002 -9.720352 -5.595526 56.183712 -4.677680 8.959270 96.752601 -0.000000 -0.000002 0.000004 -15.693259 -0.481042 70.340464 -3.437065 14.035063 79.803158 -0.000001 -0.000001 -0.000003 0.000001 0.000002 0.000002 -0.000000 0.000001 0.000000 -0.000000 0.000001 0.000000 -0.000000 0.000001 0.000000 -0.000000 0.000001 0.000000 -0.000000 0.000001 0.000000 -0.000000 -0.000000 -0.000000 -0.000000 0.000001 0.000000 -0.000000 0.000001 0.000000 -0.000000 -0.000000 -0.000000 0.000000 -0.000001 0.000000 0.000000 -0.000001 0.000000 -0.000000 0.000000 -0.000000 
